<svg width="2560.000000" height="410.000000" viewBox="0 0 2560 410" fill="none" xmlns="http://www.w3.org/2000/svg" xmlns:xlink="http://www.w3.org/1999/xlink">
	<defs>
		<filter id="filter_2365_4192_dd" x="-52.848083" y="-18.538879" width="2661.980469" height="398.447205" filterUnits="userSpaceOnUse" color-interpolation-filters="sRGB">
			<feFlood flood-opacity="0" result="BackgroundImageFix"/>
			<feBlend mode="normal" in="SourceGraphic" in2="BackgroundImageFix" result="shape"/>
			<feGaussianBlur stdDeviation="16.5667" result="effect_layerBlur_1"/>
		</filter>
		<clipPath id="clip2365_4196">
			<rect id="Frame 742" width="2560.000000" height="410.000000" fill="white" fill-opacity="0"/>
		</clipPath>
	</defs>
	<g clip-path="url(#clip2365_4196)">
		<g filter="url(#filter_2365_4192_dd)">
			<path id="Vector" d="M4 98.09L131.41 52C173.54 67.36 258 98.09 258.82 98.09C259.65 98.09 344.11 67.36 386.24 52L513.65 98.09L641.07 52L768.48 98.09L895.89 52L1023.31 98.09L1150.73 52L1278.14 98.09L1405.56 52C1447.69 67.36 1532.15 98.09 1532.97 98.09C1533.79 98.09 1618.26 67.36 1660.38 52L1787.8 98.09L1915.21 52L2042.63 98.09L2170.04 52L2297.46 98.09L2424.87 52L2552.28 98.09" stroke="#1DBADE" stroke-opacity="0.100000" stroke-width="39.176918"/>
			<path id="Vector" d="M4 205.65L131.41 155.71C173.54 172.36 258 205.65 258.82 205.65C259.65 205.65 344.11 172.36 386.24 155.71L513.65 205.65L641.07 155.71L768.48 205.65L895.89 155.71L1023.31 205.65L1150.73 155.71L1278.14 205.65L1405.56 155.71C1447.69 172.36 1532.15 205.65 1532.97 205.65C1533.79 205.65 1618.26 172.36 1660.38 155.71L1787.8 205.65L1915.21 155.71L2042.63 205.65L2170.04 155.71L2297.46 205.65L2424.87 155.71L2552.28 205.65" stroke="#1DBADE" stroke-opacity="0.100000" stroke-width="39.176918"/>
			<path id="Vector" d="M4 309.37L131.41 263.28C173.54 278.64 258 309.37 258.82 309.37C259.65 309.37 344.11 278.64 386.24 263.28L513.65 309.37L641.07 263.28L768.48 309.37L895.89 263.28L1023.31 309.37L1150.73 263.28L1278.14 309.37L1405.56 263.28C1447.69 278.64 1532.15 309.37 1532.97 309.37C1533.79 309.37 1618.26 278.64 1660.38 263.28L1787.8 309.37L1915.21 263.28L2042.63 309.37L2170.04 263.28L2297.46 309.37L2424.87 263.28L2552.28 309.37" stroke="#1DBADE" stroke-opacity="0.100000" stroke-width="39.176918"/>
		</g>
	</g>
</svg>
